<mxfile host="Electron" agent="Mozilla/5.0 (X11; Linux x86_64) AppleWebKit/537.36 (KHTML, like Gecko) draw.io/24.7.17 Chrome/128.0.6613.36 Electron/32.0.1 Safari/537.36" version="24.7.17" pages="2">
  <diagram name="general" id="w2itdub6rjrfL-Xlb_Og">
    <mxGraphModel dx="2185" dy="749" grid="1" gridSize="10" guides="1" tooltips="1" connect="1" arrows="1" fold="1" page="1" pageScale="1" pageWidth="827" pageHeight="1169" math="0" shadow="0">
      <root>
        <mxCell id="0" />
        <mxCell id="1" parent="0" />
        <mxCell id="sAjE2i76lBSJ9onT7VWk-1" style="edgeStyle=orthogonalEdgeStyle;rounded=0;orthogonalLoop=1;jettySize=auto;html=1;exitX=1;exitY=0.5;exitDx=0;exitDy=0;strokeWidth=2;" parent="1" source="sAjE2i76lBSJ9onT7VWk-3" target="sAjE2i76lBSJ9onT7VWk-6" edge="1">
          <mxGeometry relative="1" as="geometry" />
        </mxCell>
        <mxCell id="sAjE2i76lBSJ9onT7VWk-2" style="edgeStyle=orthogonalEdgeStyle;rounded=0;orthogonalLoop=1;jettySize=auto;html=1;strokeWidth=2;" parent="1" source="sAjE2i76lBSJ9onT7VWk-3" target="qY9SZ5zuNzgqv5nRQUh7-2" edge="1">
          <mxGeometry relative="1" as="geometry">
            <mxPoint x="-29.999999999999773" y="640" as="targetPoint" />
          </mxGeometry>
        </mxCell>
        <mxCell id="sAjE2i76lBSJ9onT7VWk-3" value="Generador de informes de animales falsos: Crea documentos .DOCX que contienen nombres de animales inventados (112 nombres en total)." style="rounded=1;whiteSpace=wrap;html=1;strokeWidth=2;fillColor=#fff2cc;strokeColor=#d6b656;" parent="1" vertex="1">
          <mxGeometry x="10" y="460" width="140" height="110" as="geometry" />
        </mxCell>
        <mxCell id="sAjE2i76lBSJ9onT7VWk-4" style="edgeStyle=orthogonalEdgeStyle;rounded=0;orthogonalLoop=1;jettySize=auto;html=1;strokeWidth=2;" parent="1" source="sAjE2i76lBSJ9onT7VWk-6" target="sAjE2i76lBSJ9onT7VWk-10" edge="1">
          <mxGeometry relative="1" as="geometry">
            <mxPoint x="440" y="514.9999999999998" as="targetPoint" />
          </mxGeometry>
        </mxCell>
        <mxCell id="sAjE2i76lBSJ9onT7VWk-6" value="Descargador de imágenes de animales." style="rounded=1;whiteSpace=wrap;html=1;strokeWidth=2;fillColor=#d5e8d4;strokeColor=#82b366;" parent="1" vertex="1">
          <mxGeometry x="220" y="460" width="120" height="110" as="geometry" />
        </mxCell>
        <mxCell id="sAjE2i76lBSJ9onT7VWk-7" style="edgeStyle=orthogonalEdgeStyle;rounded=0;orthogonalLoop=1;jettySize=auto;html=1;entryX=0;entryY=0.5;entryDx=0;entryDy=0;strokeWidth=2;" parent="1" source="sAjE2i76lBSJ9onT7VWk-8" target="sAjE2i76lBSJ9onT7VWk-16" edge="1">
          <mxGeometry relative="1" as="geometry" />
        </mxCell>
        <mxCell id="sAjE2i76lBSJ9onT7VWk-8" value="Agregar R y eliminar R: Implementa un proceso para añadir R a las imágenes descargadas y luego remover R." style="rounded=1;whiteSpace=wrap;html=1;strokeWidth=2;fillColor=#d5e8d4;strokeColor=#82b366;" parent="1" vertex="1">
          <mxGeometry x="827" y="460" width="120" height="110" as="geometry" />
        </mxCell>
        <mxCell id="sAjE2i76lBSJ9onT7VWk-9" style="edgeStyle=orthogonalEdgeStyle;rounded=0;orthogonalLoop=1;jettySize=auto;html=1;strokeWidth=2;" parent="1" source="sAjE2i76lBSJ9onT7VWk-10" target="sAjE2i76lBSJ9onT7VWk-13" edge="1">
          <mxGeometry relative="1" as="geometry" />
        </mxCell>
        <mxCell id="sAjE2i76lBSJ9onT7VWk-10" value="Crear archivos excel que aparentemente no tenga ninguna importancia, pero en realidad si" style="rounded=1;whiteSpace=wrap;html=1;strokeWidth=2;fillColor=#d5e8d4;strokeColor=#82b366;" parent="1" vertex="1">
          <mxGeometry x="440" y="460" width="120" height="110" as="geometry" />
        </mxCell>
        <mxCell id="sAjE2i76lBSJ9onT7VWk-11" style="edgeStyle=orthogonalEdgeStyle;rounded=0;orthogonalLoop=1;jettySize=auto;html=1;strokeWidth=2;" parent="1" source="sAjE2i76lBSJ9onT7VWk-13" target="sAjE2i76lBSJ9onT7VWk-8" edge="1">
          <mxGeometry relative="1" as="geometry" />
        </mxCell>
        <mxCell id="sAjE2i76lBSJ9onT7VWk-13" value="Scripts relevantes e irrelevantes: Clasifica scripts en dos categorías: aquellos con código importante y aquellos con código irrelevante o basura, ocultarlos con estenografia" style="rounded=1;whiteSpace=wrap;html=1;strokeWidth=2;fillColor=#fff2cc;strokeColor=#d6b656;" parent="1" vertex="1">
          <mxGeometry x="600" y="460" width="160" height="110" as="geometry" />
        </mxCell>
        <mxCell id="sAjE2i76lBSJ9onT7VWk-14" style="edgeStyle=orthogonalEdgeStyle;rounded=0;orthogonalLoop=1;jettySize=auto;html=1;entryX=0;entryY=0.5;entryDx=0;entryDy=0;strokeWidth=2;" parent="1" source="sAjE2i76lBSJ9onT7VWk-16" target="sAjE2i76lBSJ9onT7VWk-18" edge="1">
          <mxGeometry relative="1" as="geometry" />
        </mxCell>
        <mxCell id="sAjE2i76lBSJ9onT7VWk-15" style="edgeStyle=orthogonalEdgeStyle;rounded=0;orthogonalLoop=1;jettySize=auto;html=1;strokeWidth=2;entryX=0.5;entryY=0;entryDx=0;entryDy=0;entryPerimeter=0;" parent="1" source="sAjE2i76lBSJ9onT7VWk-16" target="qY9SZ5zuNzgqv5nRQUh7-6" edge="1">
          <mxGeometry relative="1" as="geometry">
            <mxPoint x="1070" y="615" as="targetPoint" />
          </mxGeometry>
        </mxCell>
        <mxCell id="sAjE2i76lBSJ9onT7VWk-16" value="Esteganografía masiva en archivos: Esconde archivos dentro de imágenes, PDFs, y docx." style="rounded=1;whiteSpace=wrap;html=1;strokeWidth=2;fillColor=#d5e8d4;strokeColor=#82b366;" parent="1" vertex="1">
          <mxGeometry x="1010" y="460" width="120" height="110" as="geometry" />
        </mxCell>
        <mxCell id="sAjE2i76lBSJ9onT7VWk-17" style="edgeStyle=orthogonalEdgeStyle;rounded=0;orthogonalLoop=1;jettySize=auto;html=1;exitX=1;exitY=0.5;exitDx=0;exitDy=0;entryX=0;entryY=0.5;entryDx=0;entryDy=0;strokeWidth=2;" parent="1" source="sAjE2i76lBSJ9onT7VWk-18" target="sAjE2i76lBSJ9onT7VWk-26" edge="1">
          <mxGeometry relative="1" as="geometry" />
        </mxCell>
        <mxCell id="sAjE2i76lBSJ9onT7VWk-18" value="Modificar metadata masivamente: Cambia de forma masiva la metadata de los informes falsos generados." style="rounded=1;whiteSpace=wrap;html=1;strokeWidth=2;fillColor=#d5e8d4;strokeColor=#82b366;" parent="1" vertex="1">
          <mxGeometry x="1200" y="460" width="120" height="110" as="geometry" />
        </mxCell>
        <mxCell id="sAjE2i76lBSJ9onT7VWk-25" style="edgeStyle=orthogonalEdgeStyle;rounded=0;orthogonalLoop=1;jettySize=auto;html=1;exitX=1;exitY=0.5;exitDx=0;exitDy=0;entryX=0;entryY=0.5;entryDx=0;entryDy=0;strokeWidth=2;" parent="1" source="sAjE2i76lBSJ9onT7VWk-26" target="sAjE2i76lBSJ9onT7VWk-28" edge="1">
          <mxGeometry relative="1" as="geometry" />
        </mxCell>
        <mxCell id="sAjE2i76lBSJ9onT7VWk-26" value="Conteo de creadores de archivos: Implementa un proceso que cuenta los creadores de cada archivo, generando un archivo Excel llamado &quot;puntaje_del_empleado_del_mes&quot;." style="rounded=1;whiteSpace=wrap;html=1;strokeWidth=2;fillColor=#d5e8d4;strokeColor=#82b366;" parent="1" vertex="1">
          <mxGeometry x="1400" y="460" width="190" height="110" as="geometry" />
        </mxCell>
        <mxCell id="sAjE2i76lBSJ9onT7VWk-27" style="edgeStyle=none;curved=1;rounded=0;orthogonalLoop=1;jettySize=auto;html=1;entryX=0;entryY=0.5;entryDx=0;entryDy=0;fontSize=12;startSize=8;endSize=8;strokeWidth=2;" parent="1" source="sAjE2i76lBSJ9onT7VWk-28" target="sAjE2i76lBSJ9onT7VWk-34" edge="1">
          <mxGeometry relative="1" as="geometry" />
        </mxCell>
        <mxCell id="sAjE2i76lBSJ9onT7VWk-28" value="Cifrado de puntuaciones de empleados: Lee el puntaje del empleado del mes, lo cifra usando hash256, y crea un archivo .txt con la contraseña para desbloquear el archivo principal oculto." style="rounded=1;whiteSpace=wrap;html=1;strokeWidth=2;fillColor=#d5e8d4;strokeColor=#82b366;" parent="1" vertex="1">
          <mxGeometry x="1654" y="460" width="186" height="110" as="geometry" />
        </mxCell>
        <mxCell id="sAjE2i76lBSJ9onT7VWk-29" value="dev" style="text;html=1;align=center;verticalAlign=middle;resizable=0;points=[];autosize=1;strokeColor=none;fillColor=#2B2B2B;fillStyle=auto;fontColor=#FFFFFF;rounded=1;glass=0;shadow=1;" parent="1" vertex="1">
          <mxGeometry x="1475" y="420" width="40" height="30" as="geometry" />
        </mxCell>
        <mxCell id="sAjE2i76lBSJ9onT7VWk-30" value="dev" style="text;html=1;align=center;verticalAlign=middle;resizable=0;points=[];autosize=1;strokeColor=none;fillColor=#2B2B2B;fillStyle=auto;fontColor=#FFFFFF;rounded=1;glass=0;shadow=1;" parent="1" vertex="1">
          <mxGeometry x="1727" y="420" width="40" height="30" as="geometry" />
        </mxCell>
        <mxCell id="sAjE2i76lBSJ9onT7VWk-31" value="dev" style="text;html=1;align=center;verticalAlign=middle;resizable=0;points=[];autosize=1;strokeColor=none;fillColor=#2B2B2B;fillStyle=auto;fontColor=#FFFFFF;rounded=1;glass=0;shadow=1;" parent="1" vertex="1">
          <mxGeometry x="867" y="420" width="40" height="30" as="geometry" />
        </mxCell>
        <mxCell id="sAjE2i76lBSJ9onT7VWk-32" value="dev" style="text;html=1;align=center;verticalAlign=middle;resizable=0;points=[];autosize=1;strokeColor=none;fillColor=#2B2B2B;fillStyle=auto;fontColor=#FFFFFF;rounded=1;glass=0;shadow=1;" parent="1" vertex="1">
          <mxGeometry x="1240" y="420" width="40" height="30" as="geometry" />
        </mxCell>
        <mxCell id="sAjE2i76lBSJ9onT7VWk-33" value="dev" style="text;html=1;align=center;verticalAlign=middle;resizable=0;points=[];autosize=1;strokeColor=none;fillColor=#2B2B2B;fillStyle=auto;fontColor=#FFFFFF;rounded=1;glass=0;shadow=1;" parent="1" vertex="1">
          <mxGeometry x="70" y="420" width="40" height="30" as="geometry" />
        </mxCell>
        <mxCell id="sAjE2i76lBSJ9onT7VWk-34" value="Ocultar el archivo principal: Desarrolla un archivo principal protegido por una contraseña, el cual será ocultado usando esteganografía." style="rounded=1;whiteSpace=wrap;html=1;strokeWidth=2;fillColor=#f8cecc;strokeColor=#b85450;" parent="1" vertex="1">
          <mxGeometry x="1920" y="460" width="186" height="110" as="geometry" />
        </mxCell>
        <mxCell id="sAjE2i76lBSJ9onT7VWk-35" value="&lt;b&gt;&lt;font style=&quot;font-size: 26px;&quot;&gt;FINAL&lt;/font&gt;&lt;/b&gt;" style="text;html=1;align=center;verticalAlign=middle;whiteSpace=wrap;rounded=0;fontSize=16;" parent="1" vertex="1">
          <mxGeometry x="1983" y="420" width="60" height="30" as="geometry" />
        </mxCell>
        <mxCell id="Uy8QLVEI_DZyxGzUfOTN-1" value="&lt;b&gt;F1&lt;/b&gt;" style="text;html=1;align=center;verticalAlign=middle;whiteSpace=wrap;rounded=0;fontSize=16;" parent="1" vertex="1">
          <mxGeometry x="60" y="380" width="60" height="30" as="geometry" />
        </mxCell>
        <mxCell id="Uy8QLVEI_DZyxGzUfOTN-2" value="&lt;b&gt;F2&lt;/b&gt;" style="text;html=1;align=center;verticalAlign=middle;whiteSpace=wrap;rounded=0;fontSize=16;" parent="1" vertex="1">
          <mxGeometry x="250" y="380" width="60" height="30" as="geometry" />
        </mxCell>
        <mxCell id="Uy8QLVEI_DZyxGzUfOTN-3" value="&lt;b&gt;F3&lt;/b&gt;" style="text;html=1;align=center;verticalAlign=middle;whiteSpace=wrap;rounded=0;fontSize=16;" parent="1" vertex="1">
          <mxGeometry x="465" y="380" width="60" height="30" as="geometry" />
        </mxCell>
        <mxCell id="Uy8QLVEI_DZyxGzUfOTN-4" value="&lt;b&gt;F4&lt;/b&gt;" style="text;html=1;align=center;verticalAlign=middle;whiteSpace=wrap;rounded=0;fontSize=16;" parent="1" vertex="1">
          <mxGeometry x="650" y="380" width="60" height="30" as="geometry" />
        </mxCell>
        <mxCell id="Uy8QLVEI_DZyxGzUfOTN-5" value="&lt;b&gt;F5&lt;/b&gt;" style="text;html=1;align=center;verticalAlign=middle;whiteSpace=wrap;rounded=0;fontSize=16;" parent="1" vertex="1">
          <mxGeometry x="857" y="380" width="60" height="30" as="geometry" />
        </mxCell>
        <mxCell id="Uy8QLVEI_DZyxGzUfOTN-6" value="&lt;b&gt;F6&lt;/b&gt;" style="text;html=1;align=center;verticalAlign=middle;whiteSpace=wrap;rounded=0;fontSize=16;" parent="1" vertex="1">
          <mxGeometry x="1040" y="380" width="60" height="30" as="geometry" />
        </mxCell>
        <mxCell id="Uy8QLVEI_DZyxGzUfOTN-7" value="&lt;b&gt;F7&lt;/b&gt;" style="text;html=1;align=center;verticalAlign=middle;whiteSpace=wrap;rounded=0;fontSize=16;" parent="1" vertex="1">
          <mxGeometry x="1230" y="380" width="60" height="30" as="geometry" />
        </mxCell>
        <mxCell id="Uy8QLVEI_DZyxGzUfOTN-8" value="&lt;b&gt;F8&lt;/b&gt;" style="text;html=1;align=center;verticalAlign=middle;whiteSpace=wrap;rounded=0;fontSize=16;" parent="1" vertex="1">
          <mxGeometry x="1465" y="380" width="60" height="30" as="geometry" />
        </mxCell>
        <mxCell id="Uy8QLVEI_DZyxGzUfOTN-9" value="&lt;b&gt;F9&lt;/b&gt;" style="text;html=1;align=center;verticalAlign=middle;whiteSpace=wrap;rounded=0;fontSize=16;" parent="1" vertex="1">
          <mxGeometry x="1717" y="380" width="60" height="30" as="geometry" />
        </mxCell>
        <mxCell id="Uy8QLVEI_DZyxGzUfOTN-10" value="&lt;b&gt;F10&lt;/b&gt;" style="text;html=1;align=center;verticalAlign=middle;whiteSpace=wrap;rounded=0;fontSize=16;" parent="1" vertex="1">
          <mxGeometry x="1983" y="380" width="60" height="30" as="geometry" />
        </mxCell>
        <mxCell id="6rqUzMrDMWeVCsxA5xaX-8" value="" style="sketch=0;pointerEvents=1;shadow=0;dashed=0;html=1;strokeColor=none;labelPosition=center;verticalLabelPosition=bottom;verticalAlign=top;outlineConnect=0;align=center;shape=mxgraph.office.security.lock_unprotected;fillColor=#DA4026;" parent="1" vertex="1">
          <mxGeometry x="725" y="680" width="38" height="55" as="geometry" />
        </mxCell>
        <mxCell id="6rqUzMrDMWeVCsxA5xaX-19" style="edgeStyle=none;curved=1;rounded=0;orthogonalLoop=1;jettySize=auto;html=1;exitX=0.5;exitY=1;exitDx=0;exitDy=0;entryX=0.5;entryY=0;entryDx=0;entryDy=0;fontSize=12;startSize=8;endSize=8;strokeWidth=2;" parent="1" source="6rqUzMrDMWeVCsxA5xaX-9" target="6rqUzMrDMWeVCsxA5xaX-18" edge="1">
          <mxGeometry relative="1" as="geometry" />
        </mxCell>
        <mxCell id="6rqUzMrDMWeVCsxA5xaX-9" value="&lt;font style=&quot;font-size: 12px;&quot;&gt;pyc&lt;/font&gt;" style="text;html=1;align=center;verticalAlign=middle;whiteSpace=wrap;rounded=0;fontSize=16;" parent="1" vertex="1">
          <mxGeometry x="714" y="705" width="60" height="30" as="geometry" />
        </mxCell>
        <mxCell id="6rqUzMrDMWeVCsxA5xaX-17" style="edgeStyle=none;curved=1;rounded=0;orthogonalLoop=1;jettySize=auto;html=1;fontSize=12;startSize=8;endSize=8;strokeWidth=2;" parent="1" source="6rqUzMrDMWeVCsxA5xaX-10" target="6rqUzMrDMWeVCsxA5xaX-16" edge="1">
          <mxGeometry relative="1" as="geometry" />
        </mxCell>
        <mxCell id="6rqUzMrDMWeVCsxA5xaX-10" value="" style="sketch=0;pointerEvents=1;shadow=0;dashed=0;html=1;strokeColor=none;labelPosition=center;verticalLabelPosition=bottom;verticalAlign=top;outlineConnect=0;align=center;shape=mxgraph.office.security.lock_protected;fillColor=#7FBA42;" parent="1" vertex="1">
          <mxGeometry x="538.75" y="680" width="48" height="52" as="geometry" />
        </mxCell>
        <mxCell id="6rqUzMrDMWeVCsxA5xaX-11" value="&lt;font style=&quot;font-size: 12px;&quot;&gt;pyarmor&lt;/font&gt;" style="text;html=1;align=center;verticalAlign=middle;whiteSpace=wrap;rounded=0;fontSize=16;" parent="1" vertex="1">
          <mxGeometry x="532.75" y="702" width="60" height="30" as="geometry" />
        </mxCell>
        <mxCell id="6rqUzMrDMWeVCsxA5xaX-12" style="edgeStyle=orthogonalEdgeStyle;rounded=0;orthogonalLoop=1;jettySize=auto;html=1;strokeWidth=2;exitX=0.5;exitY=1;exitDx=0;exitDy=0;" parent="1" source="sAjE2i76lBSJ9onT7VWk-13" target="6rqUzMrDMWeVCsxA5xaX-10" edge="1">
          <mxGeometry relative="1" as="geometry">
            <mxPoint x="710" y="580" as="sourcePoint" />
            <mxPoint x="620" y="700" as="targetPoint" />
          </mxGeometry>
        </mxCell>
        <mxCell id="6rqUzMrDMWeVCsxA5xaX-13" style="edgeStyle=orthogonalEdgeStyle;rounded=0;orthogonalLoop=1;jettySize=auto;html=1;strokeWidth=2;exitX=0.542;exitY=0.981;exitDx=0;exitDy=0;exitPerimeter=0;" parent="1" source="sAjE2i76lBSJ9onT7VWk-13" target="6rqUzMrDMWeVCsxA5xaX-8" edge="1">
          <mxGeometry relative="1" as="geometry">
            <mxPoint x="710" y="580" as="sourcePoint" />
            <mxPoint x="620" y="700" as="targetPoint" />
            <Array as="points">
              <mxPoint x="705" y="610" />
              <mxPoint x="880" y="610" />
            </Array>
          </mxGeometry>
        </mxCell>
        <mxCell id="6rqUzMrDMWeVCsxA5xaX-14" value="&lt;font style=&quot;font-size: 12px;&quot;&gt;irelevante&lt;/font&gt;" style="text;html=1;align=center;verticalAlign=middle;resizable=0;points=[];autosize=1;strokeColor=none;fillColor=none;fontSize=16;" parent="1" vertex="1">
          <mxGeometry x="704" y="585" width="80" height="30" as="geometry" />
        </mxCell>
        <mxCell id="6rqUzMrDMWeVCsxA5xaX-15" value="&lt;font style=&quot;font-size: 12px;&quot;&gt;relevante&lt;/font&gt;" style="text;html=1;align=center;verticalAlign=middle;resizable=0;points=[];autosize=1;strokeColor=none;fillColor=none;fontSize=16;rotation=0;" parent="1" vertex="1">
          <mxGeometry x="585" y="600" width="70" height="30" as="geometry" />
        </mxCell>
        <mxCell id="6rqUzMrDMWeVCsxA5xaX-16" value="scripts src/public" style="rounded=1;whiteSpace=wrap;html=1;fillColor=#7FBA42;strokeWidth=2;" parent="1" vertex="1">
          <mxGeometry x="510" y="767.5" width="105.5" height="30" as="geometry" />
        </mxCell>
        <mxCell id="6rqUzMrDMWeVCsxA5xaX-18" value="scripts basura" style="rounded=1;whiteSpace=wrap;html=1;fillColor=#DA4026;strokeWidth=2;" parent="1" vertex="1">
          <mxGeometry x="700" y="769" width="88" height="30" as="geometry" />
        </mxCell>
        <mxCell id="eooJ3AI4A6NqeZ-mqspV-1" value="dev" style="text;html=1;align=center;verticalAlign=middle;resizable=0;points=[];autosize=1;strokeColor=none;fillColor=#2B2B2B;fillStyle=auto;fontColor=#FFFFFF;rounded=1;glass=0;shadow=1;" parent="1" vertex="1">
          <mxGeometry x="260" y="420" width="40" height="30" as="geometry" />
        </mxCell>
        <mxCell id="iHbCCgad4bf8usi3pUZs-1" value="descargador de imagenes de docx" style="rounded=1;whiteSpace=wrap;html=1;strokeWidth=2;fillColor=#d5e8d4;strokeColor=#82b366;" parent="1" vertex="1">
          <mxGeometry x="110" y="650" width="120" height="110" as="geometry" />
        </mxCell>
        <mxCell id="iHbCCgad4bf8usi3pUZs-5" style="edgeStyle=orthogonalEdgeStyle;rounded=0;orthogonalLoop=1;jettySize=auto;html=1;strokeWidth=2;entryX=0.5;entryY=0;entryDx=0;entryDy=0;" parent="1" source="sAjE2i76lBSJ9onT7VWk-3" target="iHbCCgad4bf8usi3pUZs-1" edge="1">
          <mxGeometry relative="1" as="geometry">
            <mxPoint x="-20" y="650" as="targetPoint" />
            <mxPoint x="100" y="580" as="sourcePoint" />
          </mxGeometry>
        </mxCell>
        <mxCell id="qY9SZ5zuNzgqv5nRQUh7-1" value="dev" style="text;html=1;align=center;verticalAlign=middle;resizable=0;points=[];autosize=1;strokeColor=none;fillColor=#2B2B2B;fillStyle=auto;fontColor=#FFFFFF;rounded=1;glass=0;shadow=1;" vertex="1" parent="1">
          <mxGeometry x="1045" y="420" width="40" height="30" as="geometry" />
        </mxCell>
        <mxCell id="qY9SZ5zuNzgqv5nRQUh7-2" value="Incluir imágenes con esteganografía: Añade imágenes que contienen datos ocultos usando esteganografía." style="rounded=1;whiteSpace=wrap;html=1;strokeWidth=2;fillColor=#d5e8d4;strokeColor=#82b366;" vertex="1" parent="1">
          <mxGeometry x="-90" y="650" width="120" height="110" as="geometry" />
        </mxCell>
        <mxCell id="qY9SZ5zuNzgqv5nRQUh7-3" value="&lt;b&gt;F1.1&lt;/b&gt;" style="text;html=1;align=center;verticalAlign=middle;whiteSpace=wrap;rounded=0;fontSize=16;" vertex="1" parent="1">
          <mxGeometry x="-50" y="580" width="60" height="30" as="geometry" />
        </mxCell>
        <mxCell id="qY9SZ5zuNzgqv5nRQUh7-4" value="&lt;b&gt;F1.2&lt;/b&gt;" style="text;html=1;align=center;verticalAlign=middle;whiteSpace=wrap;rounded=0;fontSize=16;" vertex="1" parent="1">
          <mxGeometry x="120" y="580" width="60" height="30" as="geometry" />
        </mxCell>
        <mxCell id="qY9SZ5zuNzgqv5nRQUh7-6" value="usar el lenguaje bash" style="shape=callout;whiteSpace=wrap;html=1;perimeter=calloutPerimeter;" vertex="1" parent="1">
          <mxGeometry x="1005" y="610" width="130" height="60" as="geometry" />
        </mxCell>
        <mxCell id="qY9SZ5zuNzgqv5nRQUh7-7" value=".null" style="ellipse;shape=cloud;whiteSpace=wrap;html=1;" vertex="1" parent="1">
          <mxGeometry x="600" y="70" width="120" height="80" as="geometry" />
        </mxCell>
        <mxCell id="qY9SZ5zuNzgqv5nRQUh7-8" value="ocualtar data en sonido, en si en ondas" style="ellipse;shape=cloud;whiteSpace=wrap;html=1;" vertex="1" parent="1">
          <mxGeometry x="750" y="70" width="133" height="110" as="geometry" />
        </mxCell>
        <mxCell id="qY9SZ5zuNzgqv5nRQUh7-9" value="video ocultar en frames" style="ellipse;shape=cloud;whiteSpace=wrap;html=1;" vertex="1" parent="1">
          <mxGeometry x="594" y="170" width="120" height="80" as="geometry" />
        </mxCell>
        <mxCell id="qY9SZ5zuNzgqv5nRQUh7-10" value="ocultar en docx, stego visible" style="ellipse;shape=cloud;whiteSpace=wrap;html=1;" vertex="1" parent="1">
          <mxGeometry x="747" y="180" width="120" height="80" as="geometry" />
        </mxCell>
      </root>
    </mxGraphModel>
  </diagram>
  <diagram id="JOAdNXWe585K0fbKFMzL" name="pendriver">
    <mxGraphModel dx="1050" dy="653" grid="1" gridSize="10" guides="1" tooltips="1" connect="1" arrows="1" fold="1" page="1" pageScale="1" pageWidth="850" pageHeight="1100" math="0" shadow="0">
      <root>
        <mxCell id="0" />
        <mxCell id="1" parent="0" />
        <mxCell id="T7jdQi07zgvWwU1ulXMZ-1" value="" style="rounded=1;whiteSpace=wrap;html=1;fillColor=#dae8fc;strokeColor=#6c8ebf;" parent="1" vertex="1">
          <mxGeometry x="74" y="120" width="686" height="770" as="geometry" />
        </mxCell>
        <mxCell id="T7jdQi07zgvWwU1ulXMZ-2" value="" style="rounded=1;whiteSpace=wrap;html=1;" parent="1" vertex="1">
          <mxGeometry x="100" y="220" width="630" height="300" as="geometry" />
        </mxCell>
        <mxCell id="T7jdQi07zgvWwU1ulXMZ-3" value="" style="rounded=1;whiteSpace=wrap;html=1;fillColor=#f8cecc;strokeColor=#b85450;" parent="1" vertex="1">
          <mxGeometry x="99" y="540" width="630" height="300" as="geometry" />
        </mxCell>
        <mxCell id="T7jdQi07zgvWwU1ulXMZ-4" value="" style="image;aspect=fixed;html=1;points=[];align=center;fontSize=12;image=img/lib/azure2/general/Files.svg;" parent="1" vertex="1">
          <mxGeometry x="130" y="655" width="64" height="70" as="geometry" />
        </mxCell>
        <mxCell id="T7jdQi07zgvWwU1ulXMZ-5" value="" style="image;aspect=fixed;html=1;points=[];align=center;fontSize=12;image=img/lib/azure2/general/Files.svg;" parent="1" vertex="1">
          <mxGeometry x="240" y="655" width="64" height="70" as="geometry" />
        </mxCell>
        <mxCell id="T7jdQi07zgvWwU1ulXMZ-6" value="" style="image;aspect=fixed;html=1;points=[];align=center;fontSize=12;image=img/lib/azure2/general/Files.svg;" parent="1" vertex="1">
          <mxGeometry x="349.5" y="655" width="64" height="70" as="geometry" />
        </mxCell>
        <mxCell id="T7jdQi07zgvWwU1ulXMZ-7" value="" style="image;aspect=fixed;html=1;points=[];align=center;fontSize=12;image=img/lib/azure2/general/Files.svg;" parent="1" vertex="1">
          <mxGeometry x="450" y="655" width="64" height="70" as="geometry" />
        </mxCell>
        <mxCell id="T7jdQi07zgvWwU1ulXMZ-8" value="" style="image;aspect=fixed;html=1;points=[];align=center;fontSize=12;image=img/lib/azure2/general/Files.svg;" parent="1" vertex="1">
          <mxGeometry x="550" y="655" width="64" height="70" as="geometry" />
        </mxCell>
        <mxCell id="T7jdQi07zgvWwU1ulXMZ-9" value="" style="image;aspect=fixed;html=1;points=[];align=center;fontSize=12;image=img/lib/azure2/general/Files.svg;" parent="1" vertex="1">
          <mxGeometry x="650" y="655" width="64" height="70" as="geometry" />
        </mxCell>
        <mxCell id="T7jdQi07zgvWwU1ulXMZ-10" value="ARCHIVOS CON NULL, QUE CONTIENEN STEGO" style="text;html=1;align=center;verticalAlign=middle;whiteSpace=wrap;rounded=0;" parent="1" vertex="1">
          <mxGeometry x="304" y="560" width="240" height="70" as="geometry" />
        </mxCell>
        <mxCell id="T7jdQi07zgvWwU1ulXMZ-11" value="" style="sketch=0;pointerEvents=1;shadow=0;dashed=0;html=1;strokeColor=none;labelPosition=center;verticalLabelPosition=bottom;verticalAlign=top;outlineConnect=0;align=center;shape=mxgraph.office.concepts.folder;fillColor=#2072B8;" parent="1" vertex="1">
          <mxGeometry x="120" y="250" width="50" height="45" as="geometry" />
        </mxCell>
        <mxCell id="T7jdQi07zgvWwU1ulXMZ-12" value="" style="sketch=0;pointerEvents=1;shadow=0;dashed=0;html=1;strokeColor=none;labelPosition=center;verticalLabelPosition=bottom;verticalAlign=top;outlineConnect=0;align=center;shape=mxgraph.office.concepts.folder;fillColor=#2072B8;" parent="1" vertex="1">
          <mxGeometry x="120" y="310" width="50" height="45" as="geometry" />
        </mxCell>
        <mxCell id="T7jdQi07zgvWwU1ulXMZ-13" value="" style="sketch=0;pointerEvents=1;shadow=0;dashed=0;html=1;strokeColor=none;labelPosition=center;verticalLabelPosition=bottom;verticalAlign=top;outlineConnect=0;align=center;shape=mxgraph.office.concepts.folder;fillColor=#2072B8;" parent="1" vertex="1">
          <mxGeometry x="120" y="380" width="50" height="45" as="geometry" />
        </mxCell>
        <mxCell id="T7jdQi07zgvWwU1ulXMZ-14" value="" style="sketch=0;pointerEvents=1;shadow=0;dashed=0;html=1;strokeColor=none;labelPosition=center;verticalLabelPosition=bottom;verticalAlign=top;outlineConnect=0;align=center;shape=mxgraph.office.concepts.folder;fillColor=#2072B8;" parent="1" vertex="1">
          <mxGeometry x="120" y="440" width="50" height="45" as="geometry" />
        </mxCell>
        <mxCell id="T7jdQi07zgvWwU1ulXMZ-15" value="&lt;font style=&quot;font-size: 16px;&quot;&gt;&lt;b&gt;MEMORIA DE 4GB&lt;/b&gt;&lt;/font&gt;" style="text;html=1;align=center;verticalAlign=middle;whiteSpace=wrap;rounded=0;" parent="1" vertex="1">
          <mxGeometry x="341" y="140" width="166" height="30" as="geometry" />
        </mxCell>
        <mxCell id="T7jdQi07zgvWwU1ulXMZ-16" value="Imagenes" style="text;html=1;align=center;verticalAlign=middle;whiteSpace=wrap;rounded=0;" parent="1" vertex="1">
          <mxGeometry x="170" y="455" width="60" height="30" as="geometry" />
        </mxCell>
        <mxCell id="T7jdQi07zgvWwU1ulXMZ-17" value="vide&lt;span style=&quot;color: rgba(0, 0, 0, 0); font-family: monospace; font-size: 0px; text-align: start; text-wrap: nowrap;&quot;&gt;%3CmxGraphModel%3E%3Croot%3E%3CmxCell%20id%3D%220%22%2F%3E%3CmxCell%20id%3D%221%22%20parent%3D%220%22%2F%3E%3CmxCell%20id%3D%222%22%20value%3D%22Imagenes%22%20style%3D%22text%3Bhtml%3D1%3Balign%3Dcenter%3BverticalAlign%3Dmiddle%3BwhiteSpace%3Dwrap%3Brounded%3D0%3B%22%20vertex%3D%221%22%20parent%3D%221%22%3E%3CmxGeometry%20x%3D%22170%22%20y%3D%22455%22%20width%3D%2260%22%20height%3D%2230%22%20as%3D%22geometry%22%2F%3E%3C%2FmxCell%3E%3C%2Froot%3E%3C%2FmxGraphModel%3E&lt;/span&gt;os" style="text;html=1;align=center;verticalAlign=middle;whiteSpace=wrap;rounded=0;" parent="1" vertex="1">
          <mxGeometry x="170" y="395" width="60" height="30" as="geometry" />
        </mxCell>
        <mxCell id="T7jdQi07zgvWwU1ulXMZ-18" value="sonidos" style="text;html=1;align=center;verticalAlign=middle;whiteSpace=wrap;rounded=0;" parent="1" vertex="1">
          <mxGeometry x="170" y="317.5" width="60" height="30" as="geometry" />
        </mxCell>
        <mxCell id="T7jdQi07zgvWwU1ulXMZ-19" value="docx" style="text;html=1;align=center;verticalAlign=middle;whiteSpace=wrap;rounded=0;" parent="1" vertex="1">
          <mxGeometry x="170" y="265" width="60" height="30" as="geometry" />
        </mxCell>
      </root>
    </mxGraphModel>
  </diagram>
</mxfile>
